<svg width="36" height="27" viewBox="0 0 36 27" fill="none" xmlns="http://www.w3.org/2000/svg">
<path d="M0 2.25C0 1.00736 1.00736 0 2.25 0H33.75C34.9926 0 36 1.00736 36 2.25C36 3.49264 34.9926 4.5 33.75 4.5H2.25C1.00736 4.5 0 3.49264 0 2.25ZM0 13.5C0 12.2574 1.00736 11.25 2.25 11.25H33.75C34.9926 11.25 36 12.2574 36 13.5C36 14.7426 34.9926 15.75 33.75 15.75H2.25C1.00736 15.75 0 14.7426 0 13.5ZM0 24.75C0 23.5074 1.00736 22.5 2.25 22.5H33.75C34.9926 22.5 36 23.5074 36 24.75C36 25.9926 34.9926 27 33.75 27H2.25C1.00736 27 0 25.9926 0 24.75Z" fill="white"/>
</svg>
