<svg width="44" height="49" viewBox="0 0 44 49" fill="none" xmlns="http://www.w3.org/2000/svg">
<path d="M17.0649 31.3158L15.9233 37.9794L21.9097 34.8334L27.8962 37.9794L26.7522 31.3158L31.5971 26.5932L24.9042 25.6203L21.9097 19.5556L18.9153 25.6203L12.2224 26.5932L17.0649 31.3158Z" fill="#FF9D00"/>
<path d="M39.1111 4.88889H34.2222V0H29.3333V4.88889H14.6667V0H9.77778V4.88889H4.88889C2.19267 4.88889 0 7.08155 0 9.77778V44C0 46.6962 2.19267 48.8889 4.88889 48.8889H39.1111C41.8073 48.8889 44 46.6962 44 44V9.77778C44 7.08155 41.8073 4.88889 39.1111 4.88889ZM39.116 44H4.88889V14.6667H39.1111L39.116 44Z" fill="#FF9D00"/>
</svg>
