<svg width="50" height="48" viewBox="0 0 50 48" fill="none" xmlns="http://www.w3.org/2000/svg">
<path d="M0 0V45.3333C0 46.0406 0.280951 46.7189 0.781048 47.219C1.28115 47.7191 1.95942 48 2.66667 48H48V42.6667H5.33333V0H0Z" fill="#FF9D00"/>
<path d="M32.7813 31.2186C33.0288 31.4665 33.3226 31.6631 33.6461 31.7973C33.9697 31.9314 34.3164 32.0005 34.6667 32.0005C35.0169 32.0005 35.3637 31.9314 35.6872 31.7973C36.0107 31.6631 36.3046 31.4665 36.552 31.2186L49.8853 17.8853L46.1147 14.1146L34.6667 25.5626L28.552 19.448C28.3046 19.2001 28.0107 19.0035 27.6872 18.8693C27.3637 18.7351 27.0169 18.6661 26.6667 18.6661C26.3164 18.6661 25.9697 18.7351 25.6461 18.8693C25.3226 19.0035 25.0288 19.2001 24.7813 19.448L11.448 32.7813L15.2187 36.552L26.6667 25.104L32.7813 31.2186Z" fill="#FF9D00"/>
</svg>
