<svg width="17" height="17" viewBox="0 0 17 17" fill="none" xmlns="http://www.w3.org/2000/svg">
<path fill-rule="evenodd" clip-rule="evenodd" d="M14.523 2.47082C13.7389 1.68528 12.806 1.0624 11.7782 0.638276C10.7505 0.214152 9.64839 -0.00278725 8.53581 2.70344e-05C3.87049 2.70344e-05 0.0726011 3.77895 0.0707154 8.424C0.0707154 9.90855 0.460121 11.3574 1.20027 12.6355L0 17L4.48712 15.8279C5.72831 16.5004 7.11886 16.853 8.53204 16.8536H8.53581C13.2002 16.8536 16.9981 13.0747 17 8.42963C17.0032 7.32278 16.7859 6.22627 16.3608 5.20349C15.9356 4.1807 15.311 3.25192 14.523 2.47082ZM8.53581 15.4319H8.53298C7.27285 15.4321 6.03591 15.0946 4.95196 14.4551L4.6955 14.3031L2.03283 14.9984L2.74281 12.415L2.57592 12.1504C1.8714 11.0341 1.49844 9.74225 1.50011 8.424C1.50199 4.56344 4.65778 1.42263 8.53864 1.42263C9.46289 1.42059 10.3784 1.60101 11.2321 1.95344C12.0858 2.30587 12.8608 2.82332 13.5123 3.47584C14.1672 4.12525 14.6863 4.89741 15.0396 5.7477C15.3929 6.59798 15.5734 7.50952 15.5706 8.42963C15.5687 12.2902 12.4129 15.4319 8.53581 15.4319ZM12.395 10.1872C12.1828 10.0812 11.1438 9.5726 10.9496 9.50222C10.7563 9.43184 10.6158 9.39712 10.4744 9.60732C10.3329 9.81752 9.92749 10.2914 9.80397 10.4322C9.68046 10.5729 9.55694 10.5898 9.34574 10.4847C9.13453 10.3796 8.45284 10.1572 7.6448 9.44029C7.0159 8.88194 6.59161 8.19316 6.46809 7.98202C6.34458 7.77088 6.45489 7.65733 6.56144 7.55223C6.65667 7.4584 6.77264 7.30637 6.87824 7.18344C6.98385 7.06051 7.01873 6.97324 7.08945 6.83249C7.16016 6.69173 7.12528 6.5688 7.07153 6.4637C7.01873 6.35766 6.59538 5.32167 6.41907 4.90033C6.24841 4.49213 6.07398 4.54655 5.94386 4.54092C5.8091 4.53544 5.67424 4.53293 5.53937 4.53342C5.43212 4.53614 5.3266 4.56088 5.22941 4.60609C5.13222 4.65131 5.04547 4.71602 4.97459 4.79617C4.78036 5.00731 4.23443 5.51592 4.23443 6.55191C4.23443 7.58789 4.9925 8.58916 5.0981 8.72992C5.2037 8.87068 6.58973 10.9961 8.71119 11.9083C9.21657 12.125 9.61068 12.2545 9.91712 12.3521C10.4234 12.5126 10.8845 12.4891 11.2494 12.4356C11.6558 12.3756 12.5006 11.927 12.6769 11.4353C12.8532 10.9436 12.8532 10.5223 12.8004 10.434C12.7476 10.3458 12.6052 10.2923 12.395 10.1872Z" fill="white"/>
</svg>
