<svg width="9" height="12" viewBox="0 0 9 12" fill="none" xmlns="http://www.w3.org/2000/svg">
<path d="M0.321617 11.932C0.418681 11.9825 0.527663 12.0056 0.636863 11.9988C0.746063 11.9921 0.851359 11.9557 0.941449 11.8936L8.74186 6.49334C8.82157 6.43812 8.8867 6.3644 8.93169 6.2785C8.97668 6.1926 9.00018 6.09708 9.00018 6.00011C9.00018 5.90315 8.97668 5.80762 8.93169 5.72172C8.8867 5.63583 8.82157 5.56211 8.74186 5.50689L0.941449 0.106603C0.851429 0.0443156 0.746084 0.00784106 0.636822 0.00112912C0.527559 -0.00558283 0.418542 0.0177236 0.321575 0.0685248C0.224607 0.119326 0.143385 0.195686 0.0867027 0.289337C0.0300201 0.382988 3.69519e-05 0.490361 8.1503e-09 0.599829V11.4004C-1.80414e-05 11.5099 0.0299434 11.6174 0.0866369 11.7111C0.14333 11.8048 0.224593 11.8812 0.321617 11.932Z" fill="white"/>
</svg>
